<?xml version="1.0" encoding="UTF-8"?>
<!DOCTYPE svg PUBLIC "-//W3C//DTD SVG 1.1//EN" "http://www.w3.org/Graphics/SVG/1.1/DTD/svg11.dtd">
<svg xmlns="http://www.w3.org/2000/svg" version="1.1" width="512px" height="512px" style="shape-rendering:geometricPrecision; text-rendering:geometricPrecision; image-rendering:optimizeQuality; fill-rule:evenodd; clip-rule:evenodd" xmlns:xlink="http://www.w3.org/1999/xlink">
<g><path style="opacity:0.997" fill="#ffbd81" d="M 416.5,65.5 C 355.331,65.1676 294.331,65.5009 233.5,66.5C 215.507,72.8304 210.34,84.8304 218,102.5C 222.071,108.282 227.571,111.615 234.5,112.5C 309.5,113.833 384.5,113.833 459.5,112.5C 485.336,148.215 500.003,188.215 503.5,232.5C 477.498,232.333 451.498,232.5 425.5,233C 409.583,240.672 405.416,252.505 413,268.5C 416.315,272.818 420.481,275.985 425.5,278C 451.498,278.5 477.498,278.667 503.5,278.5C 498.92,330.96 479.587,376.96 445.5,416.5C 430.496,416.667 415.496,416.5 400.5,416C 391.451,411.404 388.284,404.238 391,394.5C 398.629,385.203 406.629,376.203 415,367.5C 422.813,350.917 419.647,336.751 405.5,325C 393.885,318.939 381.718,314.439 369,311.5C 363.145,311.737 357.645,313.237 352.5,316C 343.772,322.392 334.772,328.392 325.5,334C 314.116,338.195 303.449,336.862 293.5,330C 288.235,324.737 283.735,318.904 280,312.5C 275.415,307.957 269.915,305.124 263.5,304C 249.167,303.333 234.833,303.333 220.5,304C 203.769,309.967 195.935,321.8 197,339.5C 199.434,348.134 202.267,356.634 205.5,365C 205.172,370 202.838,373.667 198.5,376C 145.226,377.487 91.8926,377.987 38.5,377.5C 26.8873,358.258 18.554,337.591 13.5,315.5C 54.8347,315.667 96.168,315.5 137.5,315C 152.243,311.241 158.743,301.741 157,286.5C 154.5,277.333 148.667,271.5 139.5,269C 95.1679,268.5 50.8346,268.333 6.5,268.5C 4.6949,172.265 43.3616,97.4318 122.5,44C 185.038,6.44672 251.705,-3.21994 322.5,15C 357.869,24.843 389.202,41.6763 416.5,65.5 Z"/></g>
<g><path style="opacity:1" fill="#ffa96d" d="M 233.5,66.5 C 294.331,65.5009 355.331,65.1676 416.5,65.5C 418.027,65.427 419.027,66.0937 419.5,67.5C 357.542,66.5075 295.542,66.1741 233.5,66.5 Z"/></g>
<g><path style="opacity:1" fill="#ff965a" d="M 233.5,66.5 C 295.542,66.1741 357.542,66.5075 419.5,67.5C 433.93,79.9286 446.596,93.9286 457.5,109.5C 457.414,110.496 457.748,111.329 458.5,112C 383.834,112.5 309.167,112.667 234.5,112.5C 227.571,111.615 222.071,108.282 218,102.5C 210.34,84.8304 215.507,72.8304 233.5,66.5 Z"/></g>
<g><path style="opacity:1" fill="#ffad71" d="M 457.5,109.5 C 458.906,109.973 459.573,110.973 459.5,112.5C 384.5,113.833 309.5,113.833 234.5,112.5C 309.167,112.667 383.834,112.5 458.5,112C 457.748,111.329 457.414,110.496 457.5,109.5 Z"/></g>
<g><path style="opacity:1" fill="#ff965a" d="M 78.5,176.5 C 173.167,176.333 267.834,176.5 362.5,177C 378,182.834 383.166,193.668 378,209.5C 374.911,216.256 369.745,220.423 362.5,222C 268.167,222.667 173.833,222.667 79.5,222C 65.7054,216.244 60.5387,206.078 64,191.5C 67.0214,184.647 71.8548,179.647 78.5,176.5 Z"/></g>
<g><path style="opacity:1" fill="#ff965a" d="M 503.5,232.5 C 504.823,247.931 504.823,263.265 503.5,278.5C 477.498,278.667 451.498,278.5 425.5,278C 420.481,275.985 416.315,272.818 413,268.5C 405.416,252.505 409.583,240.672 425.5,233C 451.498,232.5 477.498,232.333 503.5,232.5 Z"/></g>
<g><path style="opacity:1" fill="#ff965a" d="M 6.5,268.5 C 50.8346,268.333 95.1679,268.5 139.5,269C 148.667,271.5 154.5,277.333 157,286.5C 158.743,301.741 152.243,311.241 137.5,315C 96.168,315.5 54.8347,315.667 13.5,315.5C 9.39997,300.135 7.06664,284.468 6.5,268.5 Z"/></g>
<g><path style="opacity:0.997" fill="#ff965a" d="M 445.5,416.5 C 401.473,468.018 345.473,497.185 277.5,504C 183.642,509.308 108.475,474.808 52,400.5C 46.847,393.189 42.347,385.522 38.5,377.5C 91.8926,377.987 145.226,377.487 198.5,376C 202.838,373.667 205.172,370 205.5,365C 202.267,356.634 199.434,348.134 197,339.5C 195.935,321.8 203.769,309.967 220.5,304C 234.833,303.333 249.167,303.333 263.5,304C 269.915,305.124 275.415,307.957 280,312.5C 283.735,318.904 288.235,324.737 293.5,330C 303.449,336.862 314.116,338.195 325.5,334C 334.772,328.392 343.772,322.392 352.5,316C 357.645,313.237 363.145,311.737 369,311.5C 381.718,314.439 393.885,318.939 405.5,325C 419.647,336.751 422.813,350.917 415,367.5C 406.629,376.203 398.629,385.203 391,394.5C 388.284,404.238 391.451,411.404 400.5,416C 415.496,416.5 430.496,416.667 445.5,416.5 Z"/></g>
</svg>
